#!OML:ASF F:\VICON\USERDATA\INSTALL\rory3\rory3.ASF
:FULLY-SPECIFIED
:DEGREES
1869
root -0.145114 14.9146 -1.01167 -7.92235 3.10348 -0.752226
lowerback 16.7947 1.59173 -3.01248
upperback 11.1786 1.73535 -3.40294
thorax 2.5719 0.847947 -2.13853
lowerneck 1.48193 -2.01662 -13.2985
upperneck -12.883 -1.8135 14.7684
head -3.7114 -1.00213 6.91147
rclavicle 1.94809e-014 -2.38542e-014
rhumerus 26.8377 16.9634 -56.3832
rradius 127.04
rwrist -50.9857
rhand -9.56971 11.5505
rfingers 7.12502
rthumb 16.398 -17.7764
lclavicle 1.94809e-014 -2.38542e-014
lhumerus -14.4372 -1.20868 81.1216
lradius 23.904
lwrist 19.2982
lhand -20.7878 9.81657
lfingers 7.12502
lthumb 5.57921 39.7231
rfemur -14.3908 -0.34212 17.964
rtibia 51.3458
rfoot -23.6793 -6.11013
rtoes -16.988
lfemur -14.4321 0.272234 -13.0699
ltibia 48.0334
lfoot -18.4309 -9.66542
ltoes -8.14797
1870
root -0.149956 14.9125 -1.01527 -7.88701 3.11337 -0.910925
lowerback 16.841 1.62254 -2.90315
upperback 11.1611 1.78643 -3.33279
thorax 2.52941 0.877281 -2.13436
lowerneck 1.01724 -1.78156 -13.2278
upperneck -12.4186 -1.44471 14.9891
head -3.54478 -0.814574 6.94434
rclavicle 3.97569e-015 3.33958e-014
rhumerus 26.7034 16.9116 -56.1581
rradius 127.071
rwrist -51.0504
rhand -9.19299 11.2364
rfingers 7.12502
rthumb 16.7607 -18.0601
lclavicle 3.97569e-015 3.33958e-014
lhumerus -14.4004 -1.19723 81.2059
lradius 23.9187
lwrist 19.1679
lhand -20.7532 9.87583
lfingers 7.12502
lthumb 5.61267 39.7815
rfemur -14.4526 -0.31003 18.1728
rtibia 51.3195
rfoot -23.6441 -6.13194
rtoes -16.6882
lfemur -14.5615 0.27834 -12.8619
ltibia 48.1161
lfoot -18.3377 -9.71328
ltoes -8.22457
1871
root -0.154165 14.9096 -1.01679 -7.87545 3.12959 -1.06192
lowerback 16.8858 1.64211 -2.79157
upperback 11.1516 1.82382 -3.2744
thorax 2.49689 0.900216 -2.14192
lowerneck 0.881305 -1.56074 -12.9979
upperneck -12.3352 -1.11421 15.0293
head -3.54653 -0.656652 6.90723
rclavicle -2.78299e-015 1.11319e-014
rhumerus 26.6014 16.8528 -55.9531
rradius 127.049
rwrist -51.1463
rhand -9.07411 10.9906
rfingers 7.12502
rthumb 16.8751 -18.2962
lclavicle -2.78299e-015 1.11319e-014
lhumerus -14.3945 -1.20408 81.2629
lradius 23.9446
lwrist 19.0733
lhand -20.7989 10.0183
lfingers 7.12502
lthumb 5.5685 39.9252
rfemur -14.4759 -0.291961 18.3759
rtibia 51.2939
rfoot -23.5814 -6.25242
rtoes -16.6951
lfemur -14.6395 0.29903 -12.6572
ltibia 48.1633
lfoot -18.2747 -9.87323
ltoes -7.50881
1872
root -0.155999 14.9116 -1.01411 -7.87428 3.1994 -1.05212
lowerback 16.9038 1.6534 -2.83492
upperback 11.1485 1.8323 -3.24616
thorax 2.48215 0.901397 -2.08946
lowerneck 0.668506 -1.35462 -12.9654
upperneck -12.1256 -0.803298 15.2021
head -3.49119 -0.501963 6.94435
rclavicle -1.78906e-014 -2.06736e-014
rhumerus 26.5076 16.8549 -55.7512
rradius 127.005
rwrist -51.1784
rhand -8.87948 11.0336
rfingers 7.12502
rthumb 17.0624 -18.2371
lclavicle -1.78906e-014 -2.06736e-014
lhumerus -14.4547 -1.13757 81.315
lradius 24.011
lwrist 19.0173
lhand -20.8386 10.0708
lfingers 7.12502
lthumb 5.5302 39.9786
rfemur -14.4324 -0.374181 18.3553
rtibia 51.2749
rfoot -23.6019 -6.25587
rtoes -16.8304
lfemur -14.6436 0.249654 -12.6735
ltibia 48.1617
lfoot -18.2994 -9.91839
ltoes -6.92323
1873
root -0.157243 14.9141 -1.01298 -7.85722 3.28307 -1.013
lowerback 16.9058 1.65396 -2.86592
upperback 11.1681 1.83055 -3.24886
thorax 2.50183 0.899189 -2.07455
lowerneck 0.393465 -1.17541 -12.9718
upperneck -11.8957 -0.522629 15.421
head -3.41435 -0.3595 7.00344
rclavicle 1.19271e-014 4.77083e-015
rhumerus 26.4137 16.7667 -55.5353
rradius 126.989
rwrist -51.1943
rhand -8.76658 10.9883
rfingers 7.12502
rthumb 17.1711 -18.2729
lclavicle 1.19271e-014 4.77083e-015
lhumerus -14.4116 -1.03334 81.3451
lradius 23.9917
lwrist 18.9635
lhand -20.9316 10.0044
lfingers 7.12502
lthumb 5.44042 39.9145
rfemur -14.4321 -0.469855 18.2969
rtibia 51.2754
rfoot -23.6362 -6.22394
rtoes -16.8341
lfemur -14.6588 0.167554 -12.7323
ltibia 48.1267
lfoot -18.3606 -9.86476
ltoes -7.17964
1874
root -0.157306 14.9156 -1.01139 -7.8303 3.37289 -0.874138
lowerback 16.8749 1.67297 -2.97246
upperback 11.2063 1.84602 -3.2704
thorax 2.55829 0.902148 -2.03855
lowerneck 0.165387 -1.02246 -12.9816
upperneck -11.7134 -0.278025 15.661
head -3.35456 -0.237004 7.07309
rclavicle -5.56597e-015 -4.6118e-014
rhumerus 26.3058 16.5237 -55.3024
rradius 126.966
rwrist -51.3495
rhand -8.5809 10.9112
rfingers 7.12502
rthumb 17.3498 -18.3344
lclavicle -5.56597e-015 -4.6118e-014
lhumerus -14.3175 -0.997474 81.397
lradius 23.952
lwrist 18.9116
lhand -20.8328 10.096
lfingers 7.12502
lthumb 5.53583 40.0037
rfemur -14.4387 -0.532262 18.1238
rtibia 51.2823
rfoot -23.6366 -6.20637
rtoes -16.8633
lfemur -14.6609 0.138084 -12.9078
ltibia 48.071
lfoot -18.3724 -9.86774
ltoes -7.51339
